
<?xml version="1.0" standalone="no"?>
<!DOCTYPE svg PUBLIC "-//W3C//DTD SVG 20010904//EN"
 "http://www.w3.org/TR/2001/REC-SVG-20010904/DTD/svg10.dtd">
<svg version="1.0" xmlns="http://www.w3.org/2000/svg"
 width="546.000000pt" height="546.000000pt" viewBox="0 0 346.000000 346.000000"
 preserveAspectRatio="xMidYMid meet">

<g transform="translate(0.000000,346.000000) scale(0.100000,-0.100000)"
fill="#000000" stroke="none">
<path d="M1835 3327 c-22 -11 -159 -90 -305 -175 -146 -86 -290 -170 -320
-187 -30 -17 -176 -103 -325 -190 -148 -87 -337 -197 -420 -245 -237 -137
-359 -211 -377 -228 -21 -18 -23 -60 -5 -84 7 -9 125 -78 263 -154 220 -121
810 -447 1117 -616 69 -39 116 -59 130 -56 19 4 598 336 842 483 39 23 113 67
165 97 52 30 174 101 270 158 96 56 249 145 339 198 90 53 170 106 178 118 32
49 3 74 -222 197 -66 36 -268 147 -450 247 -181 100 -404 223 -495 272 -91 50
-199 110 -240 133 -100 56 -100 56 -145 32z m410 -332 c182 -100 402 -222 490
-270 221 -120 445 -247 445 -251 0 -5 -58 -41 -170 -106 -52 -30 -189 -110
-305 -178 -115 -68 -289 -169 -385 -225 -171 -100 -516 -302 -655 -384 -38
-22 -75 -41 -81 -41 -7 0 -43 17 -81 39 -69 39 -125 70 -663 366 -505 277
-560 308 -560 316 0 4 17 16 39 27 37 19 683 395 976 567 77 46 235 138 350
205 116 67 214 126 219 131 5 4 18 3 30 -3 12 -6 170 -93 351 -193z"/>
<path d="M3240 2064 c-47 -25 -105 -58 -130 -74 -25 -15 -106 -63 -180 -105
-74 -43 -198 -115 -275 -160 -128 -75 -511 -300 -875 -513 -80 -47 -156 -91
-170 -100 -24 -14 -41 -6 -500 248 -261 144 -504 278 -540 298 -36 19 -119 65
-185 102 -154 86 -241 130 -258 130 -24 0 -57 -40 -57 -70 0 -20 8 -35 29 -49
15 -11 174 -101 352 -199 178 -99 504 -279 724 -401 219 -121 406 -221 413
-221 8 0 107 55 221 121 497 293 1120 657 1351 791 113 66 213 129 223 140 11
13 15 29 11 42 -8 26 -43 66 -58 66 -6 0 -49 -21 -96 -46z"/>
<path d="M3154 1579 c-87 -50 -343 -199 -569 -331 -225 -132 -507 -297 -625
-366 -118 -69 -246 -145 -285 -169 -38 -24 -79 -43 -90 -43 -12 0 -95 42 -186
93 -90 51 -290 162 -444 246 -154 85 -354 195 -445 246 -391 218 -396 220
-434 156 l-20 -34 35 -31 c19 -17 111 -74 204 -125 94 -52 334 -185 535 -296
763 -422 731 -405 761 -405 12 0 182 94 378 209 644 377 945 553 1016 596 39
23 138 81 222 129 150 87 193 117 193 137 0 31 -42 78 -71 79 -8 0 -87 -41
-175 -91z"/>
<path d="M3275 1213 c-16 -9 -158 -91 -315 -183 -157 -92 -405 -238 -552 -324
-148 -86 -388 -226 -535 -312 -147 -86 -273 -158 -280 -161 -7 -3 -67 25 -133
61 -66 36 -173 95 -237 131 -65 35 -289 159 -498 275 -209 116 -430 236 -492
268 l-112 57 -25 -24 c-35 -33 -34 -73 2 -101 28 -23 59 -40 467 -265 574
-316 834 -460 907 -502 43 -24 90 -46 105 -49 22 -4 61 14 188 89 88 51 345
201 570 333 226 132 547 321 715 419 168 98 313 186 324 195 26 25 24 70 -4
92 -27 22 -55 22 -95 1z"/>
</g>
</svg>
