
<?xml version="1.0" standalone="no"?>
<!DOCTYPE svg PUBLIC "-//W3C//DTD SVG 20010904//EN"
 "http://www.w3.org/TR/2001/REC-SVG-20010904/DTD/svg10.dtd">
<svg version="1.0" xmlns="http://www.w3.org/2000/svg"
 width="406.000000pt" height="406.000000pt" viewBox="0 0 406.000000 406.000000"
 preserveAspectRatio="xMidYMid meet">

<g transform="translate(0.000000,406.000000) scale(0.100000,-0.100000)"
fill="#000000" stroke="none">
<path d="M2060 3602 c-58 -33 -170 -97 -250 -144 -80 -47 -239 -140 -355 -207
-115 -68 -226 -132 -245 -143 -19 -12 -127 -75 -240 -140 -557 -325 -580 -339
-602 -369 -41 -54 -30 -62 449 -326 241 -133 573 -316 739 -407 166 -91 310
-166 321 -166 18 0 200 105 1393 803 221 129 393 236 405 251 40 54 15 72
-385 291 -69 37 -208 114 -310 170 -491 272 -787 435 -800 440 -8 3 -62 -21
-120 -53z m498 -310 c207 -115 469 -260 582 -322 113 -63 231 -128 262 -144
32 -17 58 -36 58 -42 0 -6 -62 -47 -137 -91 -308 -178 -1281 -748 -1378 -807
-33 -20 -64 -36 -70 -36 -5 0 -55 25 -110 56 -55 30 -194 107 -310 171 -440
242 -880 486 -885 491 -3 3 0 6 5 8 6 2 132 75 280 162 149 87 477 279 730
427 253 148 485 283 515 301 30 18 61 33 68 33 7 1 183 -93 390 -207z"/>
<path d="M3470 2342 c-190 -110 -524 -305 -800 -467 -129 -76 -293 -171 -365
-213 -71 -41 -197 -115 -278 -163 -82 -49 -150 -89 -153 -89 -3 0 -55 29 -117
64 -169 96 -1193 659 -1264 695 -34 17 -69 31 -78 31 -25 0 -55 -38 -55 -69 0
-41 13 -50 375 -249 171 -93 409 -225 530 -292 477 -265 606 -332 623 -328 14
4 649 373 1497 871 321 188 317 184 294 238 -12 30 -36 49 -61 49 -7 0 -74
-35 -148 -78z"/>
<path d="M3495 1921 c-55 -32 -167 -97 -250 -146 -82 -48 -242 -142 -355 -207
-264 -154 -323 -189 -688 -403 -166 -97 -311 -179 -321 -182 -10 -3 -105 44
-237 117 -120 67 -293 163 -384 213 -91 50 -264 145 -385 212 -338 188 -454
248 -470 241 -14 -5 -55 -63 -55 -78 0 -18 65 -64 175 -125 144 -79 883 -488
1115 -617 91 -51 183 -99 206 -108 l41 -17 169 98 c93 54 329 192 524 306 195
115 519 304 720 422 201 118 371 222 378 231 27 35 -15 103 -62 101 -11 0 -66
-27 -121 -58z"/>
<path d="M3600 1543 c-14 -6 -396 -228 -1285 -748 -214 -126 -402 -235 -416
-243 -24 -15 -29 -14 -90 20 -35 19 -212 118 -394 218 -776 431 -978 540 -996
540 -17 0 -53 -36 -62 -62 -12 -33 37 -69 281 -204 987 -546 1206 -665 1230
-670 30 -6 -16 -31 817 456 248 145 567 332 710 415 142 84 267 163 278 177
24 32 15 69 -23 91 -15 9 -30 17 -32 16 -1 0 -10 -3 -18 -6z"/>
</g>
</svg>
